<svg viewBox="0 0 18.0005 20.0002" fill="none" xmlns="http://www.w3.org/2000/svg">
<path id="Icon" d="M1.60266 14.8596L0.773832 14.3001H0.773832L1.60266 14.8596ZM2.6927 11.3816L1.6927 11.3707V11.3816H2.6927ZM2.71557 9.27879L3.71557 9.28967V9.27879H2.71557ZM16.4071 14.8765L17.2465 14.333L17.2465 14.333L16.4071 14.8765ZM15.358 11.3816L14.358 11.3702V11.3816H15.358ZM15.3809 9.38299L16.3809 9.39444V9.38299H15.3809ZM6.50253 18.0002C5.95025 18.0002 5.50253 18.4479 5.50253 19.0002C5.50253 19.5525 5.95025 20.0002 6.50253 20.0002V19.0002V18.0002ZM11.5014 20.0002C12.0536 20.0002 12.5014 19.5525 12.5014 19.0002C12.5014 18.4479 12.0536 18.0002 11.5014 18.0002V19.0002V20.0002ZM0.0655102 4.02415C-0.130705 4.5404 0.128737 5.11797 0.64499 5.31419C1.16124 5.5104 1.73881 5.25096 1.93503 4.7347L1.00027 4.37943L0.0655102 4.02415ZM4.3104 1.86963C4.79059 1.5968 4.95868 0.986352 4.68585 0.506164C4.41301 0.0259764 3.80257 -0.142117 3.32238 0.130717L3.81639 1.00017L4.3104 1.86963ZM14.6678 0.145261C14.1906 -0.132802 13.5784 0.0286131 13.3003 0.505792C13.0223 0.98297 13.1837 1.59521 13.6609 1.87328L14.1643 1.00927L14.6678 0.145261ZM16.0619 4.71586C16.2528 5.2341 16.8277 5.49946 17.3459 5.30856C17.8642 5.11766 18.1295 4.54278 17.9386 4.02454L17.0003 4.3702L16.0619 4.71586ZM1.60266 14.8596L2.43149 15.4191C3.06696 14.4777 3.6927 13.0809 3.6927 11.3816H2.6927H1.6927C1.6927 12.5847 1.2477 13.5981 0.773832 14.3001L1.60266 14.8596ZM2.6927 11.3816L3.69264 11.3925L3.71551 9.28967L2.71557 9.27879L1.71563 9.26791L1.69275 11.3707L2.6927 11.3816ZM16.4071 14.8765L17.2465 14.333C16.7921 13.631 16.358 12.6055 16.358 11.3816H15.358H14.358C14.358 13.0801 14.9578 14.4779 15.5676 15.4199L16.4071 14.8765ZM15.358 11.3816L16.358 11.393L16.3809 9.39444L15.3809 9.38299L14.381 9.37154L14.3581 11.3702L15.358 11.3816ZM15.3809 9.38299H16.3809C16.3809 4.98051 13.1849 1.20474 9.00195 1.20474V2.20474V3.20474C11.865 3.20474 14.3809 5.85659 14.3809 9.38299H15.3809ZM16.0253 15.851V16.851C16.812 16.851 17.2354 16.2434 17.384 15.8507C17.5408 15.4363 17.5769 14.8435 17.2465 14.333L16.4071 14.8765L15.5676 15.4199C15.5132 15.3359 15.5023 15.2637 15.5005 15.2291C15.4988 15.1945 15.504 15.1678 15.5134 15.143C15.5217 15.121 15.5477 15.0629 15.6199 14.9992C15.6998 14.9286 15.8408 14.851 16.0253 14.851V15.851ZM2.71557 9.27879H3.71557C3.71557 5.80994 6.19007 3.20474 9.00195 3.20474V2.20474V1.20474C4.87009 1.20474 1.71557 4.93386 1.71557 9.27879H2.71557ZM1.9795 15.851V14.851C2.16782 14.851 2.31032 14.9315 2.3893 15.0026C2.46038 15.0666 2.48477 15.1238 2.49207 15.1436C2.5004 15.1664 2.50532 15.1915 2.50323 15.2254C2.50115 15.2591 2.48945 15.3332 2.43149 15.4191L1.60266 14.8596L0.773832 14.3001C0.427668 14.8129 0.461623 15.416 0.61444 15.8325C0.758635 16.2255 1.18014 16.851 1.9795 16.851V15.851ZM16.0253 15.851V14.851H1.9795V15.851V16.851H16.0253V15.851ZM6.50253 19.0002V20.0002H11.5014V19.0002V18.0002H6.50253V19.0002ZM1.00027 4.37943L1.93503 4.7347C2.40873 3.48838 3.2467 2.474 4.3104 1.86963L3.81639 1.00017L3.32238 0.130717C1.8132 0.988207 0.686933 2.38915 0.0655102 4.02415L1.00027 4.37943ZM14.1643 1.00927L13.6609 1.87328C14.7591 2.51327 15.6175 3.50938 16.0619 4.71586L17.0003 4.3702L17.9386 4.02454C17.3278 2.36622 16.153 1.01069 14.6678 0.145261L14.1643 1.00927Z" fill="var(--stroke-0, black)"/>
</svg>
