<svg viewBox="0 0 22.7546 22.4821" fill="none" xmlns="http://www.w3.org/2000/svg">
<path id="Icon" d="M5.24946 14.2477L3.5623 15.9348M3.38601 9.74825H1M3.5623 3.56279L5.24946 5.24988M9.74911 1L9.74911 3.38591M15.9348 3.56279L14.2477 5.24988M21.6004 19.4658L19.7383 21.3279C19.5326 21.5336 19.1992 21.5336 18.9935 21.3279L16.0579 18.3923C15.8359 18.1703 15.4703 18.1906 15.2742 18.4357L13.2999 20.9036C13.0327 21.2376 12.4997 21.1306 12.3822 20.7193L9.19885 9.57746C9.08534 9.18016 9.45265 8.81285 9.84994 8.92637L20.9918 12.1097C21.4031 12.2273 21.5101 12.7602 21.1761 13.0274L18.7082 15.0017C18.463 15.1978 18.4428 15.5634 18.6648 15.7854L21.6004 18.721C21.8061 18.9267 21.8061 19.2602 21.6004 19.4658Z" stroke="var(--stroke-0, black)" stroke-width="2" stroke-linecap="round" stroke-linejoin="round"/>
</svg>
